<svg width="589" height="587" viewBox="0 0 589 587" fill="none" xmlns="http://www.w3.org/2000/svg">
<path opacity="0.4" d="M335.43 260.538C328.204 256.295 323.019 256.208 319.874 260.191C316.644 264.175 315.114 270.929 315.114 280.367V331.456C315.114 341.154 314.264 349.207 312.478 355.615C310.693 362.282 307.718 366.958 303.638 369.729C299.643 372.586 294.202 373.279 287.317 371.98C280.602 370.768 272.186 367.131 262.155 361.243L257.395 358.385V318.121L263.431 321.671C270.656 325.914 275.416 326.433 277.796 323.403C280.347 320.372 281.622 314.138 281.622 304.699V259.672C281.622 247.895 282.727 238.63 285.022 231.876C287.232 225.035 291.737 220.706 298.453 218.801C291.737 209.016 287.232 199.318 285.022 189.88C282.812 180.441 281.707 169.877 281.707 158.101V113.073C281.707 103.635 280.432 95.8418 277.881 89.867C275.501 83.9788 270.656 78.87 263.516 74.627L257.48 71.0768V30.812L262.24 33.6695C272.271 39.5577 280.687 45.8788 287.402 52.5463C294.287 59.3004 299.728 66.4009 303.723 74.0209C307.888 81.6409 310.863 89.7804 312.563 98.5261C314.349 107.012 315.199 116.104 315.199 125.802V176.891C315.199 186.329 316.814 194.988 319.959 202.695C323.189 210.402 328.374 216.463 335.515 220.619L335.43 260.538Z" fill="url(#paint0_linear_26_82)"/>
<path opacity="0.4" d="M153.349 112.554C160.574 116.797 165.759 116.883 168.905 112.9C172.135 108.917 173.665 102.163 173.665 92.7243V41.6357C173.665 31.9375 174.515 23.8845 176.3 17.4768C178.085 10.8093 180.975 6.1334 184.971 3.2759C189.136 0.504994 194.576 -0.187733 201.291 1.02454C208.177 2.3234 216.677 5.96022 226.708 11.935L231.468 14.7925V55.0573L225.433 51.507C218.207 47.2641 213.362 46.658 210.812 49.6886C208.432 52.8059 207.242 59.0405 207.242 68.5655V113.593C207.242 125.283 206.137 134.634 203.842 141.388C201.631 148.229 197.126 152.559 190.411 154.464C197.126 164.248 201.631 173.947 203.842 183.385C206.052 192.823 207.157 203.388 207.157 215.164V260.191C207.157 269.63 208.347 277.336 210.727 283.311C213.277 289.286 218.122 294.481 225.348 298.638L231.383 302.188V342.453L226.623 339.595C216.592 333.707 208.092 327.299 201.206 320.632C194.491 313.964 189.051 306.864 184.885 299.157C180.89 291.624 178 283.484 176.3 274.825C174.515 266.339 173.665 257.247 173.665 247.549V196.46C173.665 187.022 172.05 178.363 168.905 170.656C165.674 162.95 160.489 156.888 153.349 152.732V112.554Z" fill="url(#paint1_linear_26_82)"/>
<path opacity="0.15" d="M359.996 11.5889L539.442 117.143L539.357 555.38L359.911 449.912L359.996 11.5889Z" fill="url(#paint2_linear_26_82)"/>
<path d="M326.249 68.9985L469.058 152.905V193.17L326.249 109.263V68.9985Z" fill="#587298"/>
<path opacity="0.2" d="M383.373 255.429L518.701 335.006V456.839L383.373 377.262V255.429Z" fill="url(#paint3_linear_26_82)"/>
<path opacity="0.15" d="M382.012 161.997L519.38 242.786V256.554L382.012 175.765V161.997Z" fill="white"/>
<path opacity="0.15" d="M382.012 189.706L500.764 259.498V273.266L382.012 203.474V189.706Z" fill="white"/>
<path opacity="0.15" d="M382.012 217.069L482.828 276.297V290.065L382.012 230.837V217.069Z" fill="white"/>
<path opacity="0.2" d="M359.996 11.5889L539.442 117.143V175.852L359.911 70.3841L359.996 11.5889Z" fill="url(#paint4_linear_26_82)"/>
<path opacity="0.2" d="M404.794 67.6995C404.794 76.6184 399.693 80.7748 393.403 77.0513C387.113 73.3279 382.012 63.1968 382.012 54.2779C382.012 45.3591 387.113 41.2027 393.403 44.9261C399.693 48.6495 404.794 58.8673 404.794 67.6995Z" fill="white"/>
<path opacity="0.15" d="M36.6372 145.805L589 470.521L588.915 909.017L36.5522 584.301L36.6372 145.805Z" fill="url(#paint5_linear_26_82)"/>
<path d="M0 253.87L142.723 337.777V378.041L0 294.221V253.87Z" fill="#EA8C4F"/>
<path opacity="0.15" d="M73.8689 364.533L390.768 550.877V564.645L73.8689 378.301V364.533Z" fill="white"/>
<path opacity="0.15" d="M73.8689 392.243L347.245 552.955V566.723L73.8689 406.011V392.243Z" fill="white"/>
<path opacity="0.15" d="M73.8689 419.692L306.528 556.505V570.273L73.8689 433.46V419.692Z" fill="white"/>
<path opacity="0.2" d="M22.0158 433.373L253.995 569.754V691.587L22.0158 555.12V433.373Z" fill="url(#paint6_linear_26_82)"/>
<path opacity="0.15" d="M45.3922 478.314L229.683 586.639V600.407L45.3922 492.082V478.314Z" fill="white"/>
<path opacity="0.15" d="M45.3922 506.023L192.961 592.787V606.555L45.3922 519.704V506.023Z" fill="white"/>
<path opacity="0.2" d="M36.6368 145.805L588.235 470.174V529.576L36.6368 205.293V145.805Z" fill="url(#paint7_linear_26_82)"/>
<path opacity="0.2" d="M96.7358 210.835C96.7358 219.753 91.6355 223.91 85.3451 220.186C79.0547 216.463 73.9544 206.332 73.9544 197.413C73.9544 188.494 79.0547 184.338 85.3451 188.061C91.6355 191.785 96.7358 202.002 96.7358 210.835Z" fill="white"/>
<defs>
<linearGradient id="paint0_linear_26_82" x1="384.36" y1="18.6595" x2="241.24" y2="262.225" gradientUnits="userSpaceOnUse">
<stop stop-color="#424C57"/>
<stop offset="0.903" stop-color="white" stop-opacity="0"/>
</linearGradient>
<linearGradient id="paint1_linear_26_82" x1="303.984" y1="1.99184" x2="160.847" y2="245.526" gradientUnits="userSpaceOnUse">
<stop stop-color="#414B56"/>
<stop offset="0.903" stop-color="white" stop-opacity="0"/>
</linearGradient>
<linearGradient id="paint2_linear_26_82" x1="542.816" y1="119.134" x2="366.427" y2="419.132" gradientUnits="userSpaceOnUse">
<stop stop-color="white"/>
<stop offset="1" stop-color="white" stop-opacity="0"/>
</linearGradient>
<linearGradient id="paint3_linear_26_82" x1="476.95" y1="310.387" x2="427.925" y2="393.765" gradientUnits="userSpaceOnUse">
<stop stop-color="white"/>
<stop offset="1" stop-color="white" stop-opacity="0"/>
</linearGradient>
<linearGradient id="paint4_linear_26_82" x1="421.521" y1="12.4994" x2="478.059" y2="169.633" gradientUnits="userSpaceOnUse">
<stop stop-color="#424C58"/>
<stop offset="1" stop-color="white" stop-opacity="0"/>
</linearGradient>
<linearGradient id="paint5_linear_26_82" x1="405.97" y1="362.916" x2="312.54" y2="521.858" gradientUnits="userSpaceOnUse">
<stop stop-color="white"/>
<stop offset="1" stop-color="white" stop-opacity="0"/>
</linearGradient>
<linearGradient id="paint6_linear_26_82" x1="163.887" y1="516.747" x2="114.863" y2="600.125" gradientUnits="userSpaceOnUse">
<stop stop-color="#434D58"/>
<stop offset="1" stop-color="white" stop-opacity="0"/>
</linearGradient>
<linearGradient id="paint7_linear_26_82" x1="173.501" y1="97.9428" x2="388.74" y2="455.869" gradientUnits="userSpaceOnUse">
<stop stop-color="#546F94"/>
<stop offset="1" stop-color="white" stop-opacity="0"/>
</linearGradient>
</defs>
</svg>
