<svg width="20" height="22" viewBox="0 0 20 22" fill="none" xmlns="http://www.w3.org/2000/svg">
<g id="Group 159">
<path id="Subtract" fill-rule="evenodd" clip-rule="evenodd" d="M10.9645 5.24255C10.632 5.24255 10.3089 5.28434 10 5.363C10.1988 3.53612 10.9148 1.86912 11.9963 0.515381C16.2971 1.03457 19.6332 4.76245 19.6332 9.28325V15.7272C19.4605 15.7371 19.2864 15.7421 19.1112 15.7421C15.6706 15.7421 12.6709 13.8112 11.1028 10.9531H14.9315V9.28326C14.9315 7.05164 13.1554 5.24255 10.9645 5.24255Z" fill="white"/>
<path id="Subtract_2" fill-rule="evenodd" clip-rule="evenodd" d="M0.256424 9.84119C0.256424 4.41657 4.57377 0.019043 9.89949 0.019043C12.5623 0.019043 14.9731 1.11842 16.7182 2.89588C15.1095 1.25737 12.9351 0.195075 10.5191 0.0390326C8.89398 1.87095 7.9044 4.29893 7.9044 6.96233C7.9044 7.161 7.90991 7.35837 7.92078 7.55427C7.29901 8.11284 6.90681 8.93036 6.90681 9.84119V10.5186H12.8922L8.5214 10.5186C9.94447 14.4718 13.672 17.2925 18.0462 17.2925C18.5546 17.2925 19.0543 17.2544 19.5425 17.1809V21.3568H12.8922V17.2925H6.90681V21.3568H0.256424V13.9055V9.84119Z" fill="white"/>
</g>
</svg>
